<svg width="26" height="26" xmlns="http://www.w3.org/2000/svg"><path d="M20.514 16.832l-2.475-2.56-.007-.008a1.757 1.757 0 00-2.486 0l-1.13 1.13a1.33 1.33 0 01-1.883 0l-3.93-3.837a1.33 1.33 0 010-1.883l1.13-1.13a1.76 1.76 0 000-2.486L7.248 3.573a1.76 1.76 0 00-2.486 0l-.829.828-.075.075a6.335 6.335 0 000 8.965l6.792 6.699a6.335 6.335 0 008.955.008l.905-.834a1.76 1.76 0 00.004-2.482zM5.59 4.402a.587.587 0 01.829 0l2.486 2.485c.229.229.229.6 0 .828l-.415.415-3.314-3.315.414-.414zm5.89 14.908l-6.793-6.7a5.163 5.163 0 01-.323-6.951l3.303 3.302a2.506 2.506 0 00.11 3.424l3.93 3.838a2.5 2.5 0 003.422.108l3.303 3.302a5.15 5.15 0 01-6.952-.323zm8.21-.833l-.394.363-3.334-3.334.414-.414a.585.585 0 01.826-.003l2.48 2.567a.587.587 0 01.008.821zM12.04 2a.586.586 0 000 1.171c4.846 0 8.788 3.943 8.788 8.788a.586.586 0 001.172 0A9.955 9.955 0 0012.04 2z" fill="#fff"/><path d="M12.04 4.343a.586.586 0 000 1.172 6.452 6.452 0 016.445 6.444.586.586 0 001.171 0c0-4.2-3.416-7.616-7.616-7.616z" fill="#fff"/><path d="M12.04 6.687a.586.586 0 000 1.171 4.106 4.106 0 014.101 4.102.586.586 0 101.172 0 5.279 5.279 0 00-5.273-5.273z" fill="#fff"/><g filter="url(#filter0_d_2:52)"><path d="M12.04 9.03a.586.586 0 000 1.172c.969 0 1.757.788 1.757 1.758a.586.586 0 001.172 0 2.933 2.933 0 00-2.93-2.93z" fill="#fff"/></g><defs><filter id="filter0_d_2:52" x="7.454" y="9.03" width="11.515" height="11.515" filterUnits="userSpaceOnUse" color-interpolation-filters="sRGB"><feFlood flood-opacity="0" result="BackgroundImageFix"/><feColorMatrix in="SourceAlpha" values="0 0 0 0 0 0 0 0 0 0 0 0 0 0 0 0 0 0 127 0" result="hardAlpha"/><feOffset dy="4"/><feGaussianBlur stdDeviation="2"/><feColorMatrix values="0 0 0 0 0 0 0 0 0 0 0 0 0 0 0 0 0 0 0.25 0"/><feBlend in2="BackgroundImageFix" result="effect1_dropShadow_2:52"/><feBlend in="SourceGraphic" in2="effect1_dropShadow_2:52" result="shape"/></filter></defs></svg>