<svg width="26" height="26" xmlns="http://www.w3.org/2000/svg"><path d="M12.124 25.408h.1V16.32h-2.93v-2.73h2.93V9.83a3.566 3.566 0 013.562-3.562h3.562v2.73h-2.83c-.862 0-1.564.702-1.564 1.565v3.028h4.244l-.455 2.729h-3.79v9.087h6.693a3.766 3.766 0 003.763-3.763V3.97A3.766 3.766 0 0021.645.208H3.97A3.766 3.766 0 00.208 3.97v17.675a3.766 3.766 0 003.762 3.763h8.154zm8.921-13.482H16.62v-1.264h4.393v-6.06h-5.227A5.233 5.233 0 0010.56 9.83v2.097H7.63v6.06h2.93v5.757H3.97a2.1 2.1 0 01-2.097-2.098V3.97A2.1 2.1 0 013.97 1.872h17.675a2.1 2.1 0 012.098 2.098v17.675a2.1 2.1 0 01-2.098 2.098H16.62v-5.757h3.533l.014-.084.977-5.86.02-.116h-.119z" fill="#fff" stroke="#fff"/></svg>